<?xml version="1.0" encoding="utf-8"?>
<!-- Generator: Adobe Illustrator 15.0.2, SVG Export Plug-In . SVG Version: 6.00 Build 0)  -->
<!DOCTYPE svg PUBLIC "-//W3C//DTD SVG 1.1//EN" "http://www.w3.org/Graphics/SVG/1.1/DTD/svg11.dtd">
<svg version="1.1" id="Layer_1" xmlns="http://www.w3.org/2000/svg" xmlns:xlink="http://www.w3.org/1999/xlink" x="0px" y="0px"
	 width="360px" height="360px" viewBox="0 0 360 360" enable-background="new 0 0 360 360" xml:space="preserve">
<path fill="#193441" d="M96.061,180.197c0,46.354,37.712,84.064,84.065,84.064c46.354,0,84.067-37.711,84.067-84.064
	c0-46.355-37.713-84.068-84.067-84.068C133.772,96.129,96.061,133.842,96.061,180.197z M185.126,116.68v-4.348
	c8.762,0.64,17.072,2.927,24.607,6.583l-2.179,3.775c-1.381,2.392-0.561,5.45,1.831,6.83c0.787,0.454,1.646,0.67,2.494,0.67
	c1.729,0,3.409-0.897,4.335-2.501l2.169-3.758c7.068,4.822,13.185,10.938,18.007,18.006l-3.758,2.17
	c-2.392,1.381-3.211,4.439-1.83,6.831c0.927,1.604,2.606,2.5,4.335,2.5c0.848,0,1.708-0.216,2.495-0.671l3.774-2.179
	c3.655,7.535,5.942,15.845,6.583,24.607h-4.348c-2.762,0-5,2.239-5,5c0,2.762,2.238,5,5,5h4.348
	c-0.64,8.762-2.927,17.072-6.582,24.607l-3.775-2.18c-2.394-1.384-5.451-0.562-6.83,1.83c-1.381,2.392-0.562,5.449,1.83,6.83
	l3.759,2.17c-4.822,7.068-10.938,13.185-18.007,18.006l-2.17-3.758c-1.38-2.392-4.438-3.214-6.83-1.83
	c-2.392,1.381-3.211,4.438-1.83,6.83l2.18,3.774c-7.536,3.655-15.847,5.943-24.608,6.583v-4.348c0-2.762-2.238-5-5-5s-5,2.238-5,5
	v4.348c-8.761-0.64-17.071-2.927-24.605-6.582l2.179-3.775c1.381-2.392,0.562-5.45-1.831-6.83c-2.392-1.384-5.449-0.561-6.829,1.83
	l-2.17,3.759c-7.068-4.821-13.185-10.938-18.007-18.006l3.759-2.171c2.392-1.382,3.21-4.439,1.829-6.831
	c-1.381-2.391-4.439-3.21-6.831-1.829l-3.773,2.18c-3.655-7.535-5.942-15.846-6.582-24.606l4.349-0.001c2.762,0,5-2.239,4.999-5.001
	s-2.239-4.999-5-4.999h-0.001l-4.346,0.001c0.639-8.762,2.926-17.072,6.582-24.607l3.773,2.179c0.788,0.455,1.646,0.67,2.495,0.67
	c1.729,0,3.409-0.897,4.335-2.501c1.381-2.392,0.561-5.45-1.83-6.83l-3.758-2.168c4.822-7.068,10.938-13.185,18.006-18.007
	l2.17,3.758c0.926,1.604,2.606,2.501,4.335,2.501c0.849,0,1.708-0.216,2.495-0.671c2.392-1.381,3.211-4.438,1.83-6.83l-2.18-3.774
	c7.535-3.656,15.846-5.943,24.607-6.583v4.348c0,2.761,2.238,5,5,5S185.126,119.441,185.126,116.68z M172.127,133.946v46.25
	c0,0.028,0.004,0.057,0.004,0.085c0.002,0.174,0.014,0.348,0.026,0.521c0.007,0.093,0.011,0.187,0.021,0.278
	c0.018,0.161,0.045,0.32,0.073,0.479c0.018,0.105,0.032,0.211,0.055,0.314c0.028,0.133,0.066,0.265,0.102,0.396
	c0.034,0.128,0.066,0.256,0.106,0.381c0.034,0.104,0.075,0.208,0.114,0.312c0.055,0.148,0.108,0.296,0.172,0.439
	c0.038,0.089,0.084,0.176,0.126,0.263c0.074,0.153,0.148,0.306,0.232,0.454c0.015,0.025,0.025,0.053,0.04,0.078
	c0.024,0.042,0.055,0.077,0.079,0.117c0.135,0.225,0.279,0.44,0.435,0.648c0.056,0.074,0.108,0.149,0.165,0.221
	c0.19,0.238,0.39,0.467,0.605,0.682c0.063,0.063,0.133,0.118,0.197,0.18c0.164,0.152,0.332,0.299,0.508,0.438
	c0.093,0.072,0.186,0.141,0.28,0.209c0.18,0.129,0.365,0.25,0.556,0.363c0.074,0.045,0.146,0.093,0.221,0.135
	c0.271,0.149,0.549,0.284,0.837,0.403c0.05,0.021,0.102,0.036,0.151,0.056c0.242,0.094,0.49,0.177,0.743,0.247
	c0.086,0.023,0.172,0.045,0.258,0.066c0.225,0.055,0.452,0.098,0.683,0.133c0.093,0.015,0.185,0.031,0.277,0.043
	c0.272,0.031,0.55,0.05,0.83,0.054c0.037,0,0.073,0.007,0.11,0.007c0.058,0,0.114-0.01,0.172-0.011
	c0.248-0.006,0.494-0.02,0.736-0.048c0.113-0.013,0.225-0.033,0.337-0.051c0.207-0.033,0.411-0.072,0.612-0.12
	c0.104-0.025,0.207-0.051,0.311-0.08c0.254-0.071,0.503-0.155,0.746-0.251c0.047-0.019,0.094-0.032,0.141-0.052
	c0.3-0.124,0.589-0.269,0.869-0.428c0.022-0.012,0.046-0.021,0.068-0.033l21.29-12.292c3.826-2.209,5.138-7.102,2.928-10.928
	c-2.208-3.826-7.1-5.137-10.928-2.928l-9.29,5.364v-32.394c0-4.418-3.582-8-8-8S172.127,129.527,172.127,133.946z M305.216,117.215
	l7.666-4.426c2.893-1.67,4.443-4.962,3.889-8.256c-0.554-3.294-3.097-5.897-6.377-6.528l-31.964-6.151
	c-3.906-0.751-7.77,1.48-9.071,5.238l-10.653,30.756c-1.093,3.156-0.11,6.66,2.465,8.787c1.468,1.212,3.276,1.832,5.096,1.832
	c1.374,0,2.755-0.354,3.999-1.072l7.183-4.147c11.206,23.272,13.694,49.495,6.94,74.703c-7.471,27.883-25.353,51.187-50.352,65.62
	c-24.998,14.433-54.121,18.267-82.004,10.796s-51.187-25.353-65.619-50.352c-14.434-24.999-18.268-54.122-10.797-82.004
	c7.471-27.882,25.354-51.187,50.354-65.62c16.43-9.487,35.071-14.499,53.92-14.499c0.038,0,0.086,0,0.119,0
	c8.829,0,15.991-7.153,16-15.984c0.009-8.836-7.147-16.007-15.984-16.016c-24.52-0.034-48.729,6.473-70.056,18.786
	c-32.401,18.707-55.579,48.912-65.263,85.05S39.993,217.613,58.7,250.014c18.707,32.401,48.911,55.578,85.05,65.262
	c12.067,3.233,24.312,4.833,36.48,4.833c24.27,0,48.224-6.366,69.806-18.826c32.401-18.707,55.578-48.912,65.262-85.05
	C324.265,182.764,320.655,147.918,305.216,117.215z"/>
</svg>
